<svg xmlns="http://www.w3.org/2000/svg" viewBox="0 0 512 512">
  <defs>
    <linearGradient id="grad1" x1="0%" y1="0%" x2="100%" y2="100%">
      <stop offset="0%" style="stop-color:#ff6b6b;stop-opacity:1" />
      <stop offset="100%" style="stop-color:#ff8e53;stop-opacity:1" />
    </linearGradient>
  </defs>
  <path fill="url(#grad1)" d="M256 448l-30.164-27.211C118.718 322.442 48 258.61 48 179.095 48 114.221 97.918 64 162.4 64c36.399 0 70.717 17.042 93.6 43.947C279.283 81.042 313.6 64 350 64c64.482 0 114.4 50.221 114.4 115.095 0 79.511-70.718 143.348-177.836 241.694L256 448z"/>
  <path fill="#ffffff" d="M364.6 201.9c-4.7-6.5-13.9-7.9-20.4-3.2l-51.5 37.1-41.6-97.1c-3.7-8.7-14.7-10.6-21.2-3.7l-56.9 60.1-26.6-19.1c-7.1-5.1-16.9-3.5-22 3.6s-3.5 16.9 3.6 22l38.9 27.9c6 4.3 14.2 3.7 19.6-1.5l50.2-48.4 43.8 102.1c3.6 8.3 14.1 10.5 20.7 4.3l62.6-58.8c6.5-6.1 7.2-16.2 1.1-23.2l-1.3-1.4z"/>
</svg>
